<svg xmlns="http://www.w3.org/2000/svg" viewBox="0 0 32 32" fill="none">
  <defs>
    <linearGradient id="grad" x1="0%" y1="0%" x2="100%" y2="100%">
      <stop offset="0%" style="stop-color:#3b82f6;stop-opacity:1" />
      <stop offset="100%" style="stop-color:#1d4ed8;stop-opacity:1" />
    </linearGradient>
  </defs>
  
  <!-- Brain shape -->
  <path d="M16 3C12.5 3 9.5 5.5 9 9c-1.5 0.5-3 2-3 4.5c0 1.5 0.5 3 1.5 4C6.5 18.5 6 20 6 21.5C6 25 8.5 28 12 28h8c3.5 0 6-3 6-6.5c0-1.5-0.5-3-1.5-4.5c1-1 1.5-2.5 1.5-4c0-2.5-1.5-4-3-4.5C22.5 5.5 19.5 3 16 3z" fill="url(#grad)" stroke="#1e40af" stroke-width="1"/>
  
  <!-- Analysis lines -->
  <line x1="10" y1="14" x2="14" y2="14" stroke="white" stroke-width="1.5" stroke-linecap="round"/>
  <line x1="10" y1="17" x2="16" y2="17" stroke="white" stroke-width="1.5" stroke-linecap="round"/>
  <line x1="10" y1="20" x2="13" y2="20" stroke="white" stroke-width="1.5" stroke-linecap="round"/>
  
  <!-- Document/resume icon -->
  <rect x="18" y="12" width="6" height="8" fill="white" rx="0.5"/>
  <line x1="19" y1="14" x2="23" y2="14" stroke="#3b82f6" stroke-width="0.5"/>
  <line x1="19" y1="16" x2="23" y2="16" stroke="#3b82f6" stroke-width="0.5"/>
  <line x1="19" y1="18" x2="22" y2="18" stroke="#3b82f6" stroke-width="0.5"/>
</svg> 